<svg xmlns="http://www.w3.org/2000/svg" width="28.594" height="28.666" viewBox="0 0 28.594 28.666">
  <path id="Path_836" data-name="Path 836" d="M13.1,2.29Q20.835,1.106,28.591.04q0,6.793,0,13.583c-5.164.02-10.328.1-15.5.115Q13.094,8.01,13.1,2.29ZM0,4.117c3.884-.6,7.784-1.117,11.684-1.6q0,5.634.007,11.265c-3.9,0-7.794.056-11.691.046ZM0,15.005c3.894-.013,7.787.049,11.681.043,0,3.766.01,7.532,0,11.3C7.794,25.768,3.9,25.264,0,24.737Zm13.076.151H28.591q.01,6.774,0,13.55c-5.158-.773-10.325-1.49-15.492-2.19q-.01-5.679-.023-11.36Z" transform="translate(0 -0.04)" fill="#fff"/>
</svg>
